<?xml version="1.0" encoding="utf-8"?>
<!-- Generator: Adobe Illustrator 20.1.0, SVG Export Plug-In . SVG Version: 6.00 Build 0)  -->
<!DOCTYPE svg PUBLIC "-//W3C//DTD SVG 1.1//EN" "http://www.w3.org/Graphics/SVG/1.1/DTD/svg11.dtd">
<svg version="1.1" id="Layer_1" xmlns="http://www.w3.org/2000/svg" xmlns:xlink="http://www.w3.org/1999/xlink" x="0px" y="0px"
	 viewBox="0 0 209 218" style="disable-background:0 0 209 218;" xml:space="preserve">
<style type="text/css">
	.st0{fill:#FFFFFF;}
</style>

	<path class="st0" d="M159.2,136.7c1.2-0.4,2.5-0.7,3.8-1.2c14.1-5.4,33-23.4,38.3-65.1c-8.3,23.4-17.8,34.5-27.4,39.1
		c10.9-11.6,20.7-34,16.2-72.2c-3.2,32.6-13.1,46.4-24.8,51.9c7-11.9,15.4-33.5-5.7-65c11.1,29.2-0.6,41.9-10.7,48.9
		c16.3-31.2-11.1-56-11-55.6c-9.9-9.9-22.2-16.3-35.9-17.2C122.7,4,138.4,22,138.4,43.9c0,19.7-12.9,36.4-30.6,42
		c-2.7,0.7-5.7,1.3-8.5,1.5c-14.6,1.2-14.8,3.1-18.7,9.7C78.1,90.9,76,85,70.3,82c-11.8-6-22.1-15.7-23.3-31.9
		c-1.7,4.5-2.7,13-2.6,16.5c-12.8-11.9-6.6-28.1-6.7-29.8c-12.4,13.8-9.4,28.7-7.4,37c-6.7-6.5-10.5-18.2-6.3-40.3
		c-10.3,24.2-8.5,41.7-3.5,52.3c-5.4-5.7-9.3-15.5-10-33.1c-5.1,29.5,3.8,46.9,12,54.7c0.8,0.7,1.5,1.3,2.4,1.9
		C18,106.2,11.3,98.3,5.4,81c3.9,27.4,15.8,41.2,25,46.3c3.1,1.8,6,2.6,8.7,3c3.2-4.6,10-7.8,14.9-12.2c2.4-2.1,9-5.7,15.9-7.4
		c-5.8,3-11.5,6.4-13.6,8.3c-7.2,6.3-18.3,10.5-16.3,19.8c0,0-11,18.1-6.1,24.6c0,0,6.4-11.2,16.3-16.3c21.4-10.7,41.5-14.2,55-15.1
		c-1.7-2.2-3.8-5.8-5.4-11.5c0,0,4.3,5.6,10.5,14.4c2,2.6,4.1,5.3,6.1,7.8c6.9,7.8,15.5,14.4,29.2,12.9
		c13.6-1.7,34.5-12.4,50.9-45.2C181.6,129.6,169.4,136.1,159.2,136.7z M51.1,133.7c0.6,0.6,0.6,1.8-0.1,2.4
		c-0.7,0.7-1.7,0.7-2.2,0.1c-0.1-0.1-0.2-0.2-0.2-0.4c0,0-0.4-1.2,0.6-2.6s3.1-1.3,3.1-1.3l-1.4,1.5C50.8,133.5,51,133.5,51.1,133.7
		z"/>
	<path class="st0" d="M106,136.1c0-0.1-9.4,3.4-14.2,5.3c-5.1,1.8-10,6.3-6.5,11.9c-0.8-5.1,4.8-8,9.4-9.3c1.4-0.5,2.7-0.8,3.9-1.2
		c-1.2,0.9-2.5,2-3.5,3.2c-3.8,3.8-6.3,10-0.7,13.6c-3-4.3,0.9-9.3,4.5-12.5c2.1-2,4.1-3.4,5.4-5.4c-0.7,1.3-1.4,2.7-1.9,4.3
		c-1.3,3.5-0.9,8.1,3.7,8.7C98.8,147.6,112.5,145.3,106,136.1z"/>
	<g>
		<path class="st0" d="M57.1,205.2h2.3c1.8,0,2.6,1.1,2.6,3.3c0,0.8-0.1,1.5-0.3,1.9s-0.6,0.7-1.2,0.9c0.7,0.3,1.1,0.6,1.4,1
			c0.2,0.4,0.4,1,0.4,1.9c0,2.3-1,3.4-2.9,3.4h-2.2L57.1,205.2L57.1,205.2z M58.7,210.7c0.6,0,1.1-0.1,1.3-0.4
			c0.3-0.3,0.4-0.9,0.4-1.7c0-1.3-0.5-2-1.4-2h-0.1h-0.1h-0.1C58.7,206.6,58.7,210.7,58.7,210.7z M58.7,216.1c0.7,0,1.2-0.1,1.4-0.4
			s0.4-0.8,0.4-1.6s-0.1-1.3-0.4-1.7c-0.3-0.3-0.7-0.5-1.4-0.5V216.1z"/>
		<path class="st0" d="M70.5,205.2h1.3l2.6,12.3h-1.6l-0.5-2.4h-2.4l-0.5,2.4h-1.6L70.5,205.2z M72.1,213.9l-0.4-2
			c-0.2-1.3-0.4-2.8-0.6-4.3c-0.1,0.7-0.2,1.5-0.3,2.2c-0.1,0.8-0.3,1.6-0.4,2.4l-0.3,1.6h2V213.9z"/>
		<path class="st0" d="M80.3,205.2H82v10.9h2.7v1.4h-4.4C80.3,217.5,80.3,205.2,80.3,205.2z"/>
		<path class="st0" d="M89.4,205.2h5.4v1.5H93v10.9h-1.6v-10.9h-1.9L89.4,205.2L89.4,205.2z"/>
		<path class="st0" d="M100.6,205.2h1.7v12.3h-1.7V205.2z"/>
		<path class="st0" d="M109.7,205.2h1.4l1.1,5c0.1,0.6,0.3,1.3,0.4,1.9c0.1,0.6,0.2,1.3,0.3,2c0-0.1,0-0.2,0-0.2c0-0.1,0-0.1,0-0.1
			l0.2-1.4l0.2-1.3l0.2-0.9l1-4.9h1.4l1.1,12.3h-1.6l-0.3-4.2c0-0.2,0-0.4,0-0.6c0-0.2,0-0.3,0-0.4l-0.1-1.7v-1.5c0,0,0,0,0-0.1V209
			v0.2c0,0.3-0.1,0.5-0.1,0.8c0,0.2-0.1,0.4-0.1,0.6l-0.2,1.1l-0.1,0.4l-1,5.4h-1.1l-1-4.6c-0.1-0.6-0.3-1.2-0.4-1.9
			c-0.1-0.6-0.2-1.3-0.3-2l-0.5,8.5h-1.6L109.7,205.2z"/>
		<path class="st0" d="M129.5,211.7c0,2.2-0.2,3.7-0.7,4.6c-0.5,0.9-1.3,1.4-2.4,1.4c-1.2,0-2-0.5-2.5-1.5s-0.7-2.7-0.7-5.1
			c0-2.2,0.2-3.7,0.7-4.7c0.5-0.9,1.3-1.4,2.5-1.4c1,0,1.8,0.4,2.3,1.1c0.3,0.5,0.6,1.1,0.7,2C129.4,209,129.5,210.1,129.5,211.7z
			 M127.8,211.9c0-2.1-0.1-3.6-0.3-4.2c-0.2-0.7-0.6-1.1-1.2-1.1s-1,0.3-1.2,1c-0.2,0.6-0.3,2-0.3,3.9c0,1.8,0.1,3.1,0.3,3.8
			c0.2,0.7,0.6,1,1.2,1s0.9-0.3,1.1-0.9C127.7,214.7,127.8,213.5,127.8,211.9z"/>
		<path class="st0" d="M136.1,205.2h2.2c0.9,0,1.6,0.2,2,0.6c0.6,0.6,0.8,1.4,0.8,2.6c0,0.9-0.1,1.6-0.4,2.1c-0.3,0.5-0.7,0.9-1.3,1
			l2.3,6H140l-2.3-6v6H136v-12.3H136.1z M137.7,210.7c0.6,0,1.1-0.1,1.4-0.4c0.3-0.3,0.4-0.8,0.4-1.5c0-0.4,0-0.7-0.1-1
			s-0.1-0.5-0.3-0.7c-0.1-0.2-0.3-0.3-0.5-0.4c-0.2-0.1-0.4-0.1-0.7-0.1h-0.3v4.1H137.7z"/>
		<path class="st0" d="M147.9,205.2h4.4v1.4h-2.8v3.9h2.4v1.4h-2.4v4.2h2.8v1.4h-4.4V205.2z"/>
	</g>
	<g>
		<g>
			<rect x="0.8" y="210.7" class="st0" width="47.4" height="0.5"/>
		</g>
	</g>
	<g>
		<g>
			<rect x="159.8" y="210.7" class="st0" width="47.5" height="0.5"/>
		</g>
	</g>
	<g>
		<path class="st0" d="M3.8,181.2c0-4.3,0-5.1-0.1-6c-0.1-0.8-0.2-1.6-1.3-1.7c-0.2,0-0.5,0-1.1-0.1c-0.4,0-0.5-0.2-0.5-0.3
			c0-0.2,0.2-0.3,0.7-0.3c0.7,0,3.4,0.1,4.7,0.1c1,0,2.3,0,4.7-0.1c5,0,8.8,0.7,11.5,3.4c1.5,1.5,2.8,3.9,2.8,7.4s-1.5,6.4-3.2,7.9
			c-1.4,1.4-4.1,3.4-9.9,3.4c-1.2,0-2.1,0-3.1-0.1c-1.1-0.1-2.3-0.2-2.9-0.2c-0.7,0-1.4,0-2.2,0s-1.2,0.1-2,0.1
			c-0.5,0-0.6-0.1-0.6-0.3s0.2-0.3,0.6-0.3s0.6-0.1,0.9-0.1c0.6-0.1,0.9-0.6,1-1.8c0.1-1.4,0.1-3.4,0.1-5.9L3.8,181.2L3.8,181.2z
			 M8.9,184.4c0,3.1,0,5.1,0.1,5.6c0.1,1.2,0.2,1.8,0.5,2.1c0.5,0.6,1.7,1,3,1c2,0,3.7-0.4,5.3-2c1.5-1.5,1.9-4.1,1.9-6.8
			c0-2.6-1-5-2.2-6.6c-2-2.6-4.7-3.2-6.7-3.2c-0.6,0-1.3,0.1-1.6,0.2c-0.2,0.1-0.3,0.3-0.3,0.5c0,1,0,3.1,0,5.4
			C8.9,180.6,8.9,184.4,8.9,184.4z"/>
		<path class="st0" d="M29,181.2c0-4.5-0.1-5.1-0.1-6c-0.1-1.2-0.4-1.6-1.1-1.7c-0.4-0.1-0.9-0.1-1.2-0.1c-0.3,0-0.5-0.1-0.5-0.3
			s0.2-0.3,0.6-0.3c1.2,0,4,0.1,4.4,0.1c0.6,0,3.3-0.1,4.7-0.1c2.7,0,4.6,0.3,5.9,1c1.4,0.8,2.6,2.2,2.6,4.4c0,2.4-1.4,4.3-3.9,5.8
			c1.8,2.5,3.9,5.6,5.6,7.7c1.5,1.7,2.2,2.2,3,2.3c0.3,0.1,0.5,0.1,0.7,0.1c0.3,0,0.5,0.1,0.5,0.3c0,0.3-0.3,0.3-0.6,0.3H47
			c-3,0-4.3-0.3-5.3-1c-0.9-0.5-1.9-1.8-3-3.6c-1.3-2.2-2-3.4-2.5-4.2c-0.1-0.1-0.2-0.2-0.3-0.2H34c-0.1,0-0.2,0.1-0.2,0.2v1.5
			c0,2.3,0,3.6,0.1,4.9c0.1,0.8,0.3,1.4,1.1,1.6c0.4,0.1,0.7,0.1,1.3,0.2c0.5,0,0.5,0.1,0.5,0.3s-0.2,0.3-0.6,0.3
			c-1.9,0-5.1-0.1-5.3-0.1c-0.3,0-3.2,0.1-4.1,0.1c-0.4,0-0.6-0.1-0.6-0.3s0.2-0.3,0.5-0.3s0.7-0.1,1-0.1c0.6-0.1,0.8-0.7,0.9-1.7
			c0.1-1.2,0.1-3.2,0.1-6.1v-5H29z M34,183.1c0,0.2,0.1,0.3,0.3,0.4c0.6,0.3,1.4,0.4,2.2,0.4s1.4-0.1,1.8-0.5
			c0.6-0.5,1.1-1.7,1.1-3.6c0-4.1-2.6-5.2-4.1-5.2c-0.5,0-1,0-1.2,0.1c-0.1,0.1-0.2,0.1-0.2,0.3v8.1H34z"/>
		<path class="st0" d="M56.2,185.5c0,4,0.6,5.7,2.2,6.8c1.2,0.8,2.2,0.8,2.9,0.8c0.9,0,2.2-0.2,3.2-1.1c1.6-1.4,1.6-4.4,1.6-7.4
			v-3.5c0-4.3,0-5-0.1-5.9c-0.1-1.1-0.3-1.6-1.2-1.8c-0.3-0.1-0.5-0.1-1.1-0.1c-0.4,0-0.5-0.1-0.5-0.3s0.1-0.3,0.7-0.3
			c1.7,0,3.4,0.1,3.9,0.1s2.4-0.1,3.8-0.1c0.4,0,0.6,0.1,0.6,0.3c0,0.1-0.1,0.3-0.5,0.3c-0.3,0-0.5,0-0.9,0.1
			c-0.8,0.1-1,0.6-1.1,1.8c-0.1,0.9-0.1,1.7-0.1,5.9v2.8c0,3.3-0.1,6.9-3,9.2c-1.8,1.5-4.1,1.9-6,1.9c-2.5,0-5.1-0.4-6.9-1.9
			c-1.5-1.3-2.7-3.4-2.7-7.6v-4.4c0-4.5,0-5.3-0.1-6.2c-0.1-0.8-0.2-1.2-0.9-1.4c-0.3-0.1-1-0.2-1.2-0.2c-0.4,0-0.6-0.1-0.6-0.3
			s0.2-0.3,0.8-0.3c1.2,0,4.2,0.1,4.4,0.1s3.7-0.1,4.7-0.1c0.5,0,0.6,0.1,0.6,0.3s-0.1,0.3-0.5,0.3c-0.3,0-0.7,0.1-1,0.1
			c-0.8,0.2-1,0.8-1,1.7c-0.1,0.9-0.1,2.3-0.1,6L56.2,185.5L56.2,185.5z"/>
		<path class="st0" d="M76.8,181.2c0-3.2,0-5.3-0.1-6.2c-0.1-0.8-0.3-1.3-1-1.5c-0.4-0.1-0.8-0.1-1.1-0.1c-0.4,0-0.5-0.1-0.5-0.3
			s0.1-0.3,0.6-0.3c1.2,0,4.2,0.1,4.7,0.1c1.4,0,3-0.1,4.3-0.1c3.9,0,5.9,0.9,7,2c0.6,0.6,1.6,1.9,1.6,3.9c0,4.5-4.1,6.9-8.1,6.9
			c-0.2,0-0.7,0-0.9-0.1c-0.2-0.1-0.3-0.1-0.3-0.3s0.1-0.3,0.6-0.3c2.4,0,3.6-1.9,3.6-4.5c0-2-0.4-3.6-1.4-4.7
			c-0.8-0.8-1.7-1.2-2.8-1.2c-0.4,0-0.6,0-0.8,0.1c-0.2,0.1-0.3,0.2-0.3,0.7v11.1c0,2.3,0,4.9,0.1,6.1c0.1,0.8,0.3,1.4,1.1,1.6
			c0.4,0.1,0.9,0.1,1.3,0.1s0.5,0.1,0.5,0.3c0,0.1-0.1,0.3-0.6,0.3c-2,0-5.1-0.1-5.3-0.1c-0.1,0-3.3,0.1-4.3,0.1
			c-0.4,0-0.6-0.1-0.6-0.3s0.2-0.3,0.6-0.3c0.3,0,0.6-0.1,0.9-0.1c0.6-0.1,0.8-0.5,1-1.6c0.1-1.2,0.2-3.3,0.2-6.1L76.8,181.2
			L76.8,181.2z"/>
		<path class="st0" d="M97.7,188.7c-0.1,0-0.2,0.1-0.3,0.2l-0.9,2.4c-0.3,0.8-0.5,1.5-0.5,1.9c0,0.5,0.3,0.8,0.9,0.9
			c0.3,0.1,0.8,0.1,1,0.1c0.4,0,0.5,0.1,0.5,0.3s-0.2,0.3-0.6,0.3c-1.3,0-2.3-0.1-3.8-0.1c-0.3,0-2.2,0.1-3.7,0.1
			c-0.4,0-0.6-0.1-0.6-0.3s0.2-0.3,0.6-0.3c0.3,0,0.6-0.1,0.9-0.1c1-0.2,1.6-1.1,2.2-2.5l7.7-17.5c0.6-1.2,0.9-1.7,1.2-1.7
			c0.3,0,0.6,0.4,1,1.4c0.8,1.6,5.6,12.7,7.6,17.1c1,2.3,1.6,3,2.6,3.1c0.3,0.1,0.7,0.1,0.9,0.1c0.4,0,0.6,0.1,0.6,0.3
			s-0.2,0.3-0.8,0.3c-2.8,0-6.1-0.1-8-0.1c-0.5,0-0.6-0.1-0.6-0.3s0.1-0.3,0.4-0.3c0.3-0.1,0.4-0.3,0.3-0.5l-1.9-4.6
			c0-0.1-0.1-0.2-0.2-0.2L97.7,188.7L97.7,188.7z M103.5,186.3c0.2,0,0.2-0.1,0.1-0.1l-2.5-6.2c-0.1-0.2-0.1-0.1-0.2,0l-2.5,6.2
			c0,0.1,0,0.1,0.1,0.1H103.5z"/>
		<path class="st0" d="M122.8,186.3c0,2.9-0.1,5,0.4,5.6c0.4,0.5,1,0.7,3.4,0.7c1.6,0,2.5,0,3.3-0.5c0.7-0.3,1.2-1.1,1.5-2.4
			c0.1-0.3,0.1-0.6,0.4-0.6c0.2,0,0.2,0.1,0.2,0.6c0,0.7-0.3,3.4-0.6,4.3c-0.2,0.8-0.5,0.8-1.6,0.8c-4,0-6.7-0.2-9.8-0.2
			c-1.4,0-2.9,0.1-4.5,0.1c-0.4,0-0.6-0.1-0.6-0.3s0.2-0.3,0.6-0.3c0.3,0,0.7-0.1,1-0.1c1-0.2,1.1-0.7,1.2-3
			c0.1-1.2,0.1-2.9,0.1-4.7v-5.1c0-4.7,0-5.2-0.1-6.2c-0.1-0.8-0.3-1.3-1-1.5c-0.3-0.1-0.7-0.1-1.1-0.1c-0.3,0-0.6-0.1-0.6-0.3
			s0.3-0.3,0.9-0.3c1.7,0,3.2,0.1,4.3,0.1c0.3,0,3.9-0.1,4.9-0.1c0.5,0,0.7,0.1,0.7,0.3c0,0.3-0.3,0.3-0.7,0.3c-0.3,0-0.6,0-1,0.1
			c-0.8,0.1-1,0.7-1,1.7c-0.1,0.9-0.1,1.5-0.1,6.3v4.8H122.8z"/>
		<path class="st0" d="M137.6,191.9c-2.8-2.4-3.6-5.4-3.6-8.5c0-2,0.7-5.6,3.6-8c2.5-2.1,5.4-3,9.6-3c1.7,0,3,0.2,4.1,0.3
			c1.3,0.2,2,0.3,2.9,0.4c0.3,0,0.3,0.2,0.3,0.4s-0.1,0.9-0.1,1.9c-0.1,1,0,2.7-0.1,3.4c0,0.4-0.1,0.7-0.3,0.7s-0.3-0.2-0.3-0.6
			c0-0.6-0.1-1.8-1.1-2.8c-1-1.1-3-1.8-5.8-1.8c-1.7,0-3.1,0.4-4.3,1.4c-1.8,1.5-2.5,4.2-2.5,7.3c0,6,3.2,10,8.1,10
			c2.4,0,3.9-0.2,5-1.5c0.4-0.4,0.7-1.1,1-1.9c0.1-0.6,0.2-0.8,0.5-0.8c0.2,0,0.2,0.3,0.2,0.5c0,0.5-0.3,3-0.6,4.4
			c-0.1,0.4-0.3,0.7-0.8,0.8c-1.2,0.5-3.1,0.7-5,0.7C144.3,195.1,140.6,194.4,137.6,191.9z"/>
		<path class="st0" d="M157.7,183.8c0-5.8,3.9-11.4,12.4-11.4c7.4,0,12,4.9,12,10.8c0,6.7-4.6,11.9-12.2,11.9
			C161.3,195.1,157.7,188.9,157.7,183.8z M176.3,184.4c0-4.8-2-10.3-7.1-10.3c-2.7,0-5.6,1.5-5.6,8.3c0,5.5,2.3,10.7,7.3,10.7
			C172.6,193.2,176.3,192.4,176.3,184.4z"/>
		<path class="st0" d="M187.6,173.7c0-0.9,0.1-1.4,0.5-1.4c0.2,0,0.4,0.1,1.1,0.7c1.2,1,2.7,2.5,9.4,8.5c3,2.7,5,4.7,5.7,5.4
			l-0.2-10.9c-0.1-1.6-0.2-2.4-1.4-2.6c-0.4-0.1-0.9-0.1-1.3-0.1c-0.4,0-0.5-0.1-0.5-0.3s0.3-0.3,0.6-0.3c1.2,0,3,0.1,4.2,0.1
			c0.6,0,2.1-0.1,3.3-0.1c0.4,0,0.6,0.1,0.6,0.3c0,0.1-0.1,0.3-0.5,0.3s-0.5,0-0.7,0.1c-1,0.1-1.2,0.6-1.3,2.4
			c-0.2,5.8-0.2,11.6-0.3,17.4c0,1.5-0.2,1.8-0.6,1.8c-0.5,0-1.4-0.7-3.2-2.3c-2-1.7-4.5-4-6.3-5.6c-1.6-1.5-4.5-4.2-6.6-6.3
			l0.3,9.9c0.1,2.1,0.2,2.9,1,3.2c0.4,0.1,1,0.1,1.5,0.2c0.4,0,0.6,0.1,0.6,0.3s-0.2,0.3-0.7,0.3c-1,0-1.9-0.1-3.7-0.1
			c-0.7,0-2.8,0.1-3.9,0.1c-0.4,0-0.6-0.1-0.6-0.3s0.1-0.3,0.5-0.3c0.3,0,0.6,0,1-0.1c1.1-0.2,1.3-0.9,1.4-3.6
			C187.5,184.4,187.5,177.5,187.6,173.7z"/>
	</g>
</svg>
